<svg data-v-423bf9ae="" xmlns="http://www.w3.org/2000/svg" viewBox="0 0 493.9275760096993 60" class="font"><!----><!----><!----><g data-v-423bf9ae="" id="6d78b959-68ac-4c41-8f0a-950bd9797945" fill="white" transform="matrix(5.571030403879727,0,0,5.571030403879727,-1.1699202481205475,0)"><path d="M7.76 6.96L9.39 8.75L9.39 8.75Q9.03 9.14 8.58 9.50L8.58 9.50L8.58 9.50Q8.13 9.86 7.60 10.13L7.60 10.13L7.60 10.13Q7.07 10.40 6.45 10.56L6.45 10.56L6.45 10.56Q5.84 10.72 5.15 10.72L5.15 10.72L5.15 10.72Q4.03 10.72 3.12 10.38L3.12 10.38L3.12 10.38Q2.21 10.04 1.57 9.39L1.57 9.39L1.57 9.39Q0.92 8.74 0.57 7.80L0.57 7.80L0.57 7.80Q0.21 6.87 0.21 5.70L0.21 5.70L0.21 5.70Q0.21 4.49 0.62 3.54L0.62 3.54L0.62 3.54Q1.02 2.58 1.65 1.91L1.65 1.91L1.65 1.91Q2.28 1.25 3.03 0.90L3.03 0.90L3.03 0.90Q3.78 0.55 4.47 0.55L4.47 0.55L4.47 0.55Q4.98 0.55 5.37 0.67L5.37 0.67L5.37 0.67Q5.75 0.80 6.02 0.96L6.02 0.96L6.02 0.96Q6.29 1.12 6.43 1.28L6.43 1.28L6.43 1.28Q6.58 1.44 6.62 1.50L6.62 1.50L6.94 0.71L9.14 0.71L9.14 4.69L6.64 4.69L6.64 4.69Q6.62 4.35 6.52 4.03L6.52 4.03L6.52 4.03Q6.43 3.71 6.25 3.46L6.25 3.46L6.25 3.46Q6.08 3.22 5.80 3.07L5.80 3.07L5.80 3.07Q5.53 2.93 5.15 2.93L5.15 2.93L5.15 2.93Q4.77 2.93 4.47 3.14L4.47 3.14L4.47 3.14Q4.16 3.36 3.94 3.74L3.94 3.74L3.94 3.74Q3.72 4.12 3.60 4.62L3.60 4.62L3.60 4.62Q3.49 5.12 3.49 5.70L3.49 5.70L3.49 5.70Q3.49 6.22 3.62 6.69L3.62 6.69L3.62 6.69Q3.75 7.17 4.01 7.53L4.01 7.53L4.01 7.53Q4.27 7.90 4.65 8.11L4.65 8.11L4.65 8.11Q5.03 8.33 5.53 8.33L5.53 8.33L5.53 8.33Q5.96 8.33 6.36 8.13L6.36 8.13L6.36 8.13Q6.75 7.94 7.04 7.69L7.04 7.69L7.04 7.69Q7.34 7.45 7.53 7.23L7.53 7.23L7.53 7.23Q7.71 7.01 7.76 6.96L7.76 6.96ZM10.70 5.71L10.11 4.09L10.11 4.09Q10.32 3.96 10.64 3.79L10.64 3.79L10.64 3.79Q10.96 3.63 11.36 3.46L11.36 3.46L11.36 3.46Q11.76 3.30 12.22 3.20L12.22 3.20L12.22 3.20Q12.67 3.09 13.16 3.09L13.16 3.09L13.16 3.09Q13.79 3.09 14.46 3.23L14.46 3.23L14.46 3.23Q15.13 3.36 15.69 3.69L15.69 3.69L15.69 3.69Q16.24 4.02 16.60 4.58L16.60 4.58L16.60 4.58Q16.95 5.14 16.95 5.98L16.95 5.98L16.95 8.71L17.79 8.71L17.79 10.50L14.80 10.50L14.46 9.87L14.46 9.87Q14.27 10.14 14.02 10.31L14.02 10.31L14.02 10.31Q13.78 10.49 13.52 10.58L13.52 10.58L13.52 10.58Q13.26 10.68 13.01 10.72L13.01 10.72L13.01 10.72Q12.75 10.77 12.57 10.77L12.57 10.77L12.57 10.77Q12.07 10.77 11.58 10.63L11.58 10.63L11.58 10.63Q11.09 10.49 10.70 10.21L10.70 10.21L10.70 10.21Q10.30 9.93 10.06 9.48L10.06 9.48L10.06 9.48Q9.81 9.04 9.81 8.43L9.81 8.43L9.81 8.43Q9.81 7.84 10.05 7.36L10.05 7.36L10.05 7.36Q10.28 6.89 10.68 6.55L10.68 6.55L10.68 6.55Q11.07 6.22 11.61 6.03L11.61 6.03L11.61 6.03Q12.14 5.85 12.73 5.85L12.73 5.85L12.73 5.85Q13.03 5.85 13.28 5.92L13.28 5.92L13.28 5.92Q13.52 5.98 13.70 6.06L13.70 6.06L13.70 6.06Q13.87 6.15 13.98 6.23L13.98 6.23L13.98 6.23Q14.08 6.31 14.11 6.34L14.11 6.34L14.11 5.85L14.11 5.85Q14.11 5.38 13.73 5.22L13.73 5.22L13.73 5.22Q13.36 5.07 12.78 5.07L12.78 5.07L12.78 5.07Q12.15 5.07 11.63 5.28L11.63 5.28L11.63 5.28Q11.10 5.49 10.70 5.71L10.70 5.71ZM13.22 8.95L13.22 8.95L13.22 8.95Q13.54 8.95 13.78 8.79L13.78 8.79L13.78 8.79Q14.01 8.64 14.11 8.48L14.11 8.48L14.11 7.95L14.11 7.95Q14.10 7.92 14.05 7.86L14.05 7.86L14.05 7.86Q14 7.80 13.90 7.73L13.90 7.73L13.90 7.73Q13.80 7.66 13.66 7.60L13.66 7.60L13.66 7.60Q13.51 7.55 13.29 7.55L13.29 7.55L13.29 7.55Q12.87 7.55 12.67 7.76L12.67 7.76L12.67 7.76Q12.47 7.97 12.47 8.29L12.47 8.29L12.47 8.29Q12.47 8.58 12.68 8.76L12.68 8.76L12.68 8.76Q12.89 8.95 13.22 8.95ZM19.96 10.50L18.21 10.50L18.21 7.98L20.09 7.98L20.09 7.98Q20.09 8.26 20.27 8.44L20.27 8.44L20.27 8.44Q20.44 8.62 20.68 8.73L20.68 8.73L20.68 8.73Q20.92 8.83 21.17 8.88L21.17 8.88L21.17 8.88Q21.42 8.92 21.57 8.92L21.57 8.92L21.57 8.92Q21.78 8.92 21.99 8.83L21.99 8.83L21.99 8.83Q22.19 8.74 22.19 8.44L22.19 8.44L22.19 8.44Q22.19 8.29 22.01 8.18L22.01 8.18L22.01 8.18Q21.83 8.08 21.54 7.99L21.54 7.99L21.54 7.99Q21.25 7.91 20.88 7.82L20.88 7.82L20.88 7.82Q20.51 7.73 20.13 7.60L20.13 7.60L20.13 7.60Q19.77 7.48 19.44 7.29L19.44 7.29L19.44 7.29Q19.11 7.11 18.84 6.85L18.84 6.85L18.84 6.85Q18.58 6.58 18.42 6.22L18.42 6.22L18.42 6.22Q18.27 5.85 18.27 5.36L18.27 5.36L18.27 5.36Q18.27 4.83 18.52 4.45L18.52 4.45L18.52 4.45Q18.76 4.06 19.13 3.81L19.13 3.81L19.13 3.81Q19.50 3.57 19.93 3.45L19.93 3.45L19.93 3.45Q20.36 3.33 20.73 3.33L20.73 3.33L20.73 3.33Q21.45 3.33 22.02 3.65L22.02 3.65L22.02 3.65Q22.60 3.98 22.82 4.42L22.82 4.42L22.93 3.50L24.65 3.50L24.65 6.02L22.83 6.02L22.83 6.02Q22.83 5.80 22.71 5.61L22.71 5.61L22.71 5.61Q22.58 5.42 22.38 5.27L22.38 5.27L22.38 5.27Q22.18 5.12 21.92 5.04L21.92 5.04L21.92 5.04Q21.67 4.96 21.41 4.96L21.41 4.96L21.41 4.96Q21.18 4.96 21.02 5.08L21.02 5.08L21.02 5.08Q20.86 5.19 20.86 5.46L20.86 5.46L20.86 5.46Q20.86 5.61 21 5.72L21 5.72L21 5.72Q21.14 5.82 21.39 5.92L21.39 5.92L21.39 5.92Q21.63 6.02 21.94 6.12L21.94 6.12L21.94 6.12Q22.25 6.22 22.58 6.33L22.58 6.33L22.58 6.33Q22.97 6.47 23.38 6.63L23.38 6.63L23.38 6.63Q23.79 6.79 24.11 7.04L24.11 7.04L24.11 7.04Q24.43 7.28 24.63 7.65L24.63 7.65L24.63 7.65Q24.84 8.02 24.84 8.57L24.84 8.57L24.84 8.57Q24.84 9.06 24.62 9.45L24.62 9.45L24.62 9.45Q24.40 9.84 24.05 10.12L24.05 10.12L24.05 10.12Q23.69 10.39 23.21 10.53L23.21 10.53L23.21 10.53Q22.74 10.67 22.23 10.67L22.23 10.67L22.23 10.67Q21.48 10.67 20.91 10.36L20.91 10.36L20.91 10.36Q20.34 10.05 20.09 9.65L20.09 9.65L19.96 10.50ZM27.08 10.50L25.33 10.50L25.33 7.98L27.20 7.98L27.20 7.98Q27.20 8.26 27.38 8.44L27.38 8.44L27.38 8.44Q27.55 8.62 27.79 8.73L27.79 8.73L27.79 8.73Q28.03 8.83 28.28 8.88L28.28 8.88L28.28 8.88Q28.53 8.92 28.69 8.92L28.69 8.92L28.69 8.92Q28.90 8.92 29.10 8.83L29.10 8.83L29.10 8.83Q29.30 8.74 29.30 8.44L29.30 8.44L29.30 8.44Q29.30 8.29 29.12 8.18L29.12 8.18L29.12 8.18Q28.94 8.08 28.65 7.99L28.65 7.99L28.65 7.99Q28.36 7.91 27.99 7.82L27.99 7.82L27.99 7.82Q27.62 7.73 27.24 7.60L27.24 7.60L27.24 7.60Q26.88 7.48 26.55 7.29L26.55 7.29L26.55 7.29Q26.22 7.11 25.96 6.85L25.96 6.85L25.96 6.85Q25.69 6.58 25.54 6.22L25.54 6.22L25.54 6.22Q25.38 5.85 25.38 5.36L25.38 5.36L25.38 5.36Q25.38 4.83 25.63 4.45L25.63 4.45L25.63 4.45Q25.87 4.06 26.24 3.81L26.24 3.81L26.24 3.81Q26.61 3.57 27.04 3.45L27.04 3.45L27.04 3.45Q27.47 3.33 27.85 3.33L27.85 3.33L27.85 3.33Q28.56 3.33 29.13 3.65L29.13 3.65L29.13 3.65Q29.71 3.98 29.93 4.42L29.93 4.42L30.04 3.50L31.77 3.50L31.77 6.02L29.95 6.02L29.95 6.02Q29.95 5.80 29.82 5.61L29.82 5.61L29.82 5.61Q29.69 5.42 29.49 5.27L29.49 5.27L29.49 5.27Q29.29 5.12 29.04 5.04L29.04 5.04L29.04 5.04Q28.78 4.96 28.52 4.96L28.52 4.96L28.52 4.96Q28.29 4.96 28.13 5.08L28.13 5.08L28.13 5.08Q27.97 5.19 27.97 5.46L27.97 5.46L27.97 5.46Q27.97 5.61 28.11 5.72L28.11 5.72L28.11 5.72Q28.25 5.82 28.50 5.92L28.50 5.92L28.50 5.92Q28.74 6.02 29.05 6.12L29.05 6.12L29.05 6.12Q29.36 6.22 29.69 6.33L29.69 6.33L29.69 6.33Q30.09 6.47 30.49 6.63L30.49 6.63L30.49 6.63Q30.90 6.79 31.22 7.04L31.22 7.04L31.22 7.04Q31.54 7.28 31.75 7.65L31.75 7.65L31.75 7.65Q31.95 8.02 31.95 8.57L31.95 8.57L31.95 8.57Q31.95 9.06 31.73 9.45L31.73 9.45L31.73 9.45Q31.51 9.84 31.16 10.12L31.16 10.12L31.16 10.12Q30.80 10.39 30.32 10.53L30.32 10.53L30.32 10.53Q29.85 10.67 29.34 10.67L29.34 10.67L29.34 10.67Q28.59 10.67 28.02 10.36L28.02 10.36L28.02 10.36Q27.45 10.05 27.20 9.65L27.20 9.65L27.08 10.50ZM36.50 8.67L36.50 10.50L32.58 10.50L32.58 8.67L33.17 8.67L33.17 5.32L32.58 5.32L32.58 3.50L35.83 3.50L35.83 8.67L36.50 8.67ZM32.97 1.46L32.97 1.46L32.97 1.46Q32.97 1.22 33.07 0.97L33.07 0.97L33.07 0.97Q33.17 0.71 33.36 0.50L33.36 0.50L33.36 0.50Q33.54 0.29 33.83 0.16L33.83 0.16L33.83 0.16Q34.12 0.03 34.48 0.03L34.48 0.03L34.48 0.03Q34.85 0.03 35.13 0.16L35.13 0.16L35.13 0.16Q35.42 0.29 35.62 0.50L35.62 0.50L35.62 0.50Q35.81 0.71 35.92 0.97L35.92 0.97L35.92 0.97Q36.02 1.22 36.02 1.46L36.02 1.46L36.02 1.46Q36.02 2.04 35.63 2.46L35.63 2.46L35.63 2.46Q35.24 2.87 34.48 2.87L34.48 2.87L34.48 2.87Q34.15 2.87 33.87 2.74L33.87 2.74L33.87 2.74Q33.60 2.62 33.40 2.41L33.40 2.41L33.40 2.41Q33.19 2.21 33.08 1.96L33.08 1.96L33.08 1.96Q32.97 1.71 32.97 1.46ZM43.05 8.18L44.23 9.53L44.23 9.53Q43.44 10.21 42.57 10.48L42.57 10.48L42.57 10.48Q41.71 10.75 40.61 10.75L40.61 10.75L40.61 10.75Q39.96 10.75 39.30 10.54L39.30 10.54L39.30 10.54Q38.64 10.32 38.12 9.86L38.12 9.86L38.12 9.86Q37.59 9.41 37.25 8.69L37.25 8.69L37.25 8.69Q36.92 7.97 36.92 6.96L36.92 6.96L36.92 6.96Q36.92 6.10 37.21 5.42L37.21 5.42L37.21 5.42Q37.51 4.75 38.01 4.27L38.01 4.27L38.01 4.27Q38.51 3.79 39.20 3.55L39.20 3.55L39.20 3.55Q39.89 3.30 40.68 3.30L40.68 3.30L40.68 3.30Q41.31 3.30 41.85 3.46L41.85 3.46L41.85 3.46Q42.39 3.61 42.83 3.88L42.83 3.88L42.83 3.88Q43.26 4.14 43.57 4.52L43.57 4.52L43.57 4.52Q43.88 4.90 44.03 5.33L44.03 5.33L44.03 5.33Q44.09 5.52 44.14 5.80L44.14 5.80L44.14 5.80Q44.20 6.08 44.22 6.40L44.22 6.40L44.22 6.40Q44.24 6.72 44.20 7.06L44.20 7.06L44.20 7.06Q44.17 7.41 44.06 7.70L44.06 7.70L39.65 7.70L39.65 7.70Q39.68 7.84 39.74 8.04L39.74 8.04L39.74 8.04Q39.80 8.23 39.96 8.41L39.96 8.41L39.96 8.41Q40.11 8.60 40.38 8.72L40.38 8.72L40.38 8.72Q40.64 8.85 41.09 8.85L41.09 8.85L41.09 8.85Q41.27 8.85 41.49 8.83L41.49 8.83L41.49 8.83Q41.71 8.82 41.96 8.75L41.96 8.75L41.96 8.75Q42.21 8.68 42.49 8.55L42.49 8.55L42.49 8.55Q42.77 8.41 43.05 8.18L43.05 8.18ZM40.77 5.19L40.77 5.19L40.77 5.19Q40.45 5.19 40.24 5.32L40.24 5.32L40.24 5.32Q40.04 5.45 39.92 5.62L39.92 5.62L39.92 5.62Q39.80 5.80 39.75 5.99L39.75 5.99L39.75 5.99Q39.70 6.19 39.69 6.31L39.69 6.31L41.80 6.31L41.80 6.31Q41.80 6.12 41.76 5.92L41.76 5.92L41.76 5.92Q41.72 5.71 41.62 5.55L41.62 5.55L41.62 5.55Q41.51 5.39 41.31 5.29L41.31 5.29L41.31 5.29Q41.10 5.19 40.77 5.19ZM55.69 6.96L57.33 8.75L57.33 8.75Q56.97 9.14 56.52 9.50L56.52 9.50L56.52 9.50Q56.07 9.86 55.54 10.13L55.54 10.13L55.54 10.13Q55.01 10.40 54.39 10.56L54.39 10.56L54.39 10.56Q53.77 10.72 53.09 10.72L53.09 10.72L53.09 10.72Q51.97 10.72 51.06 10.38L51.06 10.38L51.06 10.38Q50.15 10.04 49.50 9.39L49.50 9.39L49.50 9.39Q48.86 8.74 48.50 7.80L48.50 7.80L48.50 7.80Q48.15 6.87 48.15 5.70L48.15 5.70L48.15 5.70Q48.15 4.49 48.55 3.54L48.55 3.54L48.55 3.54Q48.96 2.58 49.59 1.91L49.59 1.91L49.59 1.91Q50.22 1.25 50.97 0.90L50.97 0.90L50.97 0.90Q51.72 0.55 52.40 0.55L52.40 0.55L52.40 0.55Q52.92 0.55 53.30 0.67L53.30 0.67L53.30 0.67Q53.69 0.80 53.96 0.96L53.96 0.96L53.96 0.96Q54.22 1.12 54.37 1.28L54.37 1.28L54.37 1.28Q54.52 1.44 54.56 1.50L54.56 1.50L54.88 0.71L57.08 0.71L57.08 4.69L54.57 4.69L54.57 4.69Q54.56 4.35 54.46 4.03L54.46 4.03L54.46 4.03Q54.36 3.71 54.19 3.46L54.19 3.46L54.19 3.46Q54.01 3.22 53.74 3.07L53.74 3.07L53.74 3.07Q53.47 2.93 53.09 2.93L53.09 2.93L53.09 2.93Q52.71 2.93 52.40 3.14L52.40 3.14L52.40 3.14Q52.09 3.36 51.88 3.74L51.88 3.74L51.88 3.74Q51.66 4.12 51.54 4.62L51.54 4.62L51.54 4.62Q51.42 5.12 51.42 5.70L51.42 5.70L51.42 5.70Q51.42 6.22 51.55 6.69L51.55 6.69L51.55 6.69Q51.69 7.17 51.95 7.53L51.95 7.53L51.95 7.53Q52.21 7.90 52.58 8.11L52.58 8.11L52.58 8.11Q52.96 8.33 53.47 8.33L53.47 8.33L53.47 8.33Q53.90 8.33 54.29 8.13L54.29 8.13L54.29 8.13Q54.68 7.94 54.98 7.69L54.98 7.69L54.98 7.69Q55.27 7.45 55.46 7.23L55.46 7.23L55.46 7.23Q55.65 7.01 55.69 6.96L55.69 6.96ZM61.60 10.68L61.60 10.68L61.60 10.68Q60.84 10.68 60.14 10.45L60.14 10.45L60.14 10.45Q59.43 10.22 58.88 9.76L58.88 9.76L58.88 9.76Q58.34 9.30 58.01 8.60L58.01 8.60L58.01 8.60Q57.68 7.90 57.69 6.97L57.69 6.97L57.69 6.97Q57.69 6.09 58.02 5.41L58.02 5.41L58.02 5.41Q58.35 4.73 58.89 4.27L58.89 4.27L58.89 4.27Q59.43 3.81 60.12 3.57L60.12 3.57L60.12 3.57Q60.80 3.33 61.53 3.33L61.53 3.33L61.53 3.33Q62.36 3.35 63.06 3.59L63.06 3.59L63.06 3.59Q63.77 3.84 64.29 4.31L64.29 4.31L64.29 4.31Q64.81 4.79 65.11 5.47L65.11 5.47L65.11 5.47Q65.41 6.15 65.42 7.03L65.42 7.03L65.42 7.03Q65.44 7.90 65.14 8.57L65.14 8.57L65.14 8.57Q64.83 9.25 64.32 9.72L64.32 9.72L64.32 9.72Q63.80 10.19 63.10 10.44L63.10 10.44L63.10 10.44Q62.40 10.68 61.60 10.68ZM61.60 8.89L61.60 8.89L61.60 8.89Q61.82 8.89 62.00 8.75L62.00 8.75L62.00 8.75Q62.17 8.61 62.30 8.36L62.30 8.36L62.30 8.36Q62.43 8.11 62.49 7.76L62.49 7.76L62.49 7.76Q62.55 7.42 62.55 7.03L62.55 7.03L62.55 7.03Q62.55 6.23 62.29 5.70L62.29 5.70L62.29 5.70Q62.02 5.17 61.53 5.15L61.53 5.15L61.53 5.15Q61.32 5.15 61.14 5.29L61.14 5.29L61.14 5.29Q60.97 5.43 60.84 5.68L60.84 5.68L60.84 5.68Q60.72 5.94 60.64 6.27L60.64 6.27L60.64 6.27Q60.56 6.61 60.56 6.99L60.56 6.99L60.56 6.99Q60.56 7.85 60.86 8.37L60.86 8.37L60.86 8.37Q61.15 8.89 61.60 8.89ZM70.73 3.89L70.73 1.82L70.08 1.82L70.08 0L73.57 0L73.57 8.68L74.24 8.68L74.24 10.50L70.97 10.50L70.73 9.98L70.73 9.98Q70.66 10.05 70.51 10.16L70.51 10.16L70.51 10.16Q70.36 10.26 70.14 10.37L70.14 10.37L70.14 10.37Q69.92 10.47 69.62 10.55L69.62 10.55L69.62 10.55Q69.33 10.63 68.96 10.63L68.96 10.63L68.96 10.63Q68.22 10.63 67.62 10.32L67.62 10.32L67.62 10.32Q67.02 10.02 66.60 9.51L66.60 9.51L66.60 9.51Q66.18 9.00 65.95 8.33L65.95 8.33L65.95 8.33Q65.72 7.66 65.72 6.93L65.72 6.93L65.72 6.93Q65.72 6.12 65.98 5.45L65.98 5.45L65.98 5.45Q66.25 4.79 66.70 4.33L66.70 4.33L66.70 4.33Q67.14 3.86 67.73 3.61L67.73 3.61L67.73 3.61Q68.32 3.36 68.96 3.36L68.96 3.36L68.96 3.36Q69.71 3.36 70.12 3.56L70.12 3.56L70.12 3.56Q70.53 3.77 70.73 3.89L70.73 3.89ZM68.73 6.93L68.73 6.93L68.73 6.93Q68.73 7.25 68.80 7.56L68.80 7.56L68.80 7.56Q68.87 7.87 69.00 8.11L69.00 8.11L69.00 8.11Q69.13 8.34 69.31 8.50L69.31 8.50L69.31 8.50Q69.50 8.65 69.73 8.65L69.73 8.65L69.73 8.65Q69.94 8.65 70.13 8.53L70.13 8.53L70.13 8.53Q70.32 8.40 70.46 8.17L70.46 8.17L70.46 8.17Q70.60 7.94 70.67 7.61L70.67 7.61L70.67 7.61Q70.74 7.28 70.73 6.86L70.73 6.86L70.73 6.86Q70.73 6.51 70.64 6.20L70.64 6.20L70.64 6.20Q70.56 5.89 70.42 5.66L70.42 5.66L70.42 5.66Q70.28 5.43 70.10 5.31L70.10 5.31L70.10 5.31Q69.92 5.18 69.72 5.18L69.72 5.18L69.72 5.18Q69.27 5.18 69.00 5.66L69.00 5.66L69.00 5.66Q68.73 6.13 68.73 6.93ZM80.65 8.18L81.83 9.53L81.83 9.53Q81.05 10.21 80.18 10.48L80.18 10.48L80.18 10.48Q79.31 10.75 78.22 10.75L78.22 10.75L78.22 10.75Q77.56 10.75 76.90 10.54L76.90 10.54L76.90 10.54Q76.24 10.32 75.72 9.86L75.72 9.86L75.72 9.86Q75.19 9.41 74.86 8.69L74.86 8.69L74.86 8.69Q74.52 7.97 74.52 6.96L74.52 6.96L74.52 6.96Q74.52 6.10 74.82 5.42L74.82 5.42L74.82 5.42Q75.11 4.75 75.61 4.27L75.61 4.27L75.61 4.27Q76.12 3.79 76.80 3.55L76.80 3.55L76.80 3.55Q77.49 3.30 78.29 3.30L78.29 3.30L78.29 3.30Q78.92 3.30 79.46 3.46L79.46 3.46L79.46 3.46Q80.00 3.61 80.43 3.88L80.43 3.88L80.43 3.88Q80.86 4.14 81.17 4.52L81.17 4.52L81.17 4.52Q81.48 4.90 81.63 5.33L81.63 5.33L81.63 5.33Q81.69 5.52 81.75 5.80L81.75 5.80L81.75 5.80Q81.80 6.08 81.82 6.40L81.82 6.40L81.82 6.40Q81.84 6.72 81.81 7.06L81.81 7.06L81.81 7.06Q81.77 7.41 81.66 7.70L81.66 7.70L77.25 7.70L77.25 7.70Q77.28 7.84 77.34 8.04L77.34 8.04L77.34 8.04Q77.41 8.23 77.56 8.41L77.56 8.41L77.56 8.41Q77.71 8.60 77.98 8.72L77.98 8.72L77.98 8.72Q78.25 8.85 78.69 8.85L78.69 8.85L78.69 8.85Q78.88 8.85 79.09 8.83L79.09 8.83L79.09 8.83Q79.31 8.82 79.56 8.75L79.56 8.75L79.56 8.75Q79.81 8.68 80.09 8.55L80.09 8.55L80.09 8.55Q80.37 8.41 80.65 8.18L80.65 8.18ZM78.37 5.19L78.37 5.19L78.37 5.19Q78.05 5.19 77.85 5.32L77.85 5.32L77.85 5.32Q77.64 5.45 77.52 5.62L77.52 5.62L77.52 5.62Q77.41 5.80 77.36 5.99L77.36 5.99L77.36 5.99Q77.31 6.19 77.29 6.31L77.29 6.31L79.41 6.31L79.41 6.31Q79.41 6.12 79.37 5.92L79.37 5.92L79.37 5.92Q79.32 5.71 79.22 5.55L79.22 5.55L79.22 5.55Q79.11 5.39 78.91 5.29L78.91 5.29L78.91 5.29Q78.71 5.19 78.37 5.19ZM84.00 10.50L82.25 10.50L82.25 7.98L84.13 7.98L84.13 7.98Q84.13 8.26 84.30 8.44L84.30 8.44L84.30 8.44Q84.48 8.62 84.71 8.73L84.71 8.73L84.71 8.73Q84.95 8.83 85.20 8.88L85.20 8.88L85.20 8.88Q85.46 8.92 85.61 8.92L85.61 8.92L85.61 8.92Q85.82 8.92 86.02 8.83L86.02 8.83L86.02 8.83Q86.23 8.74 86.23 8.44L86.23 8.44L86.23 8.44Q86.23 8.29 86.04 8.18L86.04 8.18L86.04 8.18Q85.86 8.08 85.57 7.99L85.57 7.99L85.57 7.99Q85.29 7.91 84.92 7.82L84.92 7.82L84.92 7.82Q84.55 7.73 84.17 7.60L84.17 7.60L84.17 7.60Q83.80 7.48 83.47 7.29L83.47 7.29L83.47 7.29Q83.15 7.11 82.88 6.85L82.88 6.85L82.88 6.85Q82.61 6.58 82.46 6.22L82.46 6.22L82.46 6.22Q82.31 5.85 82.31 5.36L82.31 5.36L82.31 5.36Q82.31 4.83 82.55 4.45L82.55 4.45L82.55 4.45Q82.80 4.06 83.17 3.81L83.17 3.81L83.17 3.81Q83.54 3.57 83.96 3.45L83.96 3.45L83.96 3.45Q84.39 3.33 84.77 3.33L84.77 3.33L84.77 3.33Q85.48 3.33 86.06 3.65L86.06 3.65L86.06 3.65Q86.63 3.98 86.86 4.42L86.86 4.42L86.97 3.50L88.69 3.50L88.69 6.02L86.87 6.02L86.87 6.02Q86.87 5.80 86.74 5.61L86.74 5.61L86.74 5.61Q86.62 5.42 86.41 5.27L86.41 5.27L86.41 5.27Q86.21 5.12 85.96 5.04L85.96 5.04L85.96 5.04Q85.71 4.96 85.44 4.96L85.44 4.96L85.44 4.96Q85.22 4.96 85.06 5.08L85.06 5.08L85.06 5.08Q84.90 5.19 84.90 5.46L84.90 5.46L84.90 5.46Q84.90 5.61 85.04 5.72L85.04 5.72L85.04 5.72Q85.18 5.82 85.42 5.92L85.42 5.92L85.42 5.92Q85.67 6.02 85.97 6.12L85.97 6.12L85.97 6.12Q86.28 6.22 86.62 6.33L86.62 6.33L86.62 6.33Q87.01 6.47 87.42 6.63L87.42 6.63L87.42 6.63Q87.82 6.79 88.14 7.04L88.14 7.04L88.14 7.04Q88.47 7.28 88.67 7.65L88.67 7.65L88.67 7.65Q88.87 8.02 88.87 8.57L88.87 8.57L88.87 8.57Q88.87 9.06 88.65 9.45L88.65 9.45L88.65 9.45Q88.44 9.84 88.08 10.12L88.08 10.12L88.08 10.12Q87.72 10.39 87.25 10.53L87.25 10.53L87.25 10.53Q86.77 10.67 86.27 10.67L86.27 10.67L86.27 10.67Q85.51 10.67 84.94 10.36L84.94 10.36L84.94 10.36Q84.38 10.05 84.13 9.65L84.13 9.65L84.00 10.50Z"></path></g><!----><!----></svg>